<!-- Generated by IcoMoon.io -->
<svg version="1.1" xmlns="http://www.w3.org/2000/svg" width="32" height="32" viewBox="0 0 32 32">
<title>down</title>
<path d="M16 31.2c-8.395 0-15.2-6.805-15.2-15.2s6.805-15.2 15.2-15.2c8.395 0 15.2 6.805 15.2 15.2s-6.805 15.2-15.2 15.2zM16 1.288c-8.125 0-14.712 6.587-14.712 14.712s6.587 14.712 14.712 14.712c8.125 0 14.712-6.587 14.712-14.712-0.009-8.122-6.59-14.703-14.711-14.712z"></path>
<path d="M21.648 10.056l-0.536-0.24-5.112 11.568-5.112-11.568-0.536 0.24 5.648 12.744 5.648-12.744z"></path>
</svg>
