<svg id="Layer_1" data-name="Layer 1" xmlns="http://www.w3.org/2000/svg" viewBox="0 0 24.81 28"><title>drupal</title><path class="cls-1" d="M13.27,17.34a4.42,4.42,0,1,0,4.41,4.41A4.41,4.41,0,0,0,13.27,17.34Zm5.49-.85A7.61,7.61,0,0,1,17.62,28a12.77,12.77,0,0,0,8-7.18c1.87-4.6.13-8-2.79-11.19a5.81,5.81,0,0,1-4.08,6.86Zm-5-5.59a3.38,3.38,0,1,0,3.39-3.38A3.38,3.38,0,0,0,13.77,10.9ZM7.44,26.66A7.61,7.61,0,0,1,12.36,14.2a5.82,5.82,0,0,1,4.8-9.12,6.49,6.49,0,0,1,.77,0A44.57,44.57,0,0,1,12.63,0c.76,8-7.27,5.08-10.25,12.44A11.65,11.65,0,0,0,7.44,26.66Z" transform="translate(-1.59)"/></svg>
