<svg data-name="Linkedin Icon" xmlns="http://www.w3.org/2000/svg" viewBox="0 0 32.84 35.95"><title>icons</title><path d="M1.16,7.07A3.77,3.77,0,0,1,0,4.32,3.74,3.74,0,0,1,1.16,1.58,3.74,3.74,0,0,1,3.9.42,3.77,3.77,0,0,1,6.65,1.58,3.73,3.73,0,0,1,7.8,4.32,3.76,3.76,0,0,1,6.65,7.07,3.77,3.77,0,0,1,3.9,8.23,3.74,3.74,0,0,1,1.16,7.07ZM.51,32.8V11.19H7.23V32.8Zm25.14,0V22.25a11.66,11.66,0,0,0-.43-3.76,3,3,0,0,0-3.11-1.95,3.39,3.39,0,0,0-3.25,1.73,8.12,8.12,0,0,0-.72,3.83V32.8H11.49V11.19h6.43v3H18a5.82,5.82,0,0,1,2.32-2.38,7.1,7.1,0,0,1,4-1.16c3.13,0,5.33,1,6.58,3,1,1.59,1.45,4.05,1.45,7.38V32.8Z"/></svg>
