<?xml version="1.0" encoding="UTF-8"?>
<svg id="Siteimprove" xmlns="http://www.w3.org/2000/svg" version="1.1" viewBox="0 0 400 400">
  <!-- Generator: Adobe Illustrator 29.4.0, SVG Export Plug-In . SVG Version: 2.1.0 Build 152)  -->
  <defs>
    <style>
      .st0 {
        fill: #141255;
      }
    </style>
  </defs>
  <path class="st0" d="M200,61.5c-76.49,0-138.5,62.01-138.5,138.5s62.01,138.5,138.5,138.5,138.5-62.01,138.5-138.5S276.49,61.5,200,61.5ZM200,292.33c-50.91,0-92.33-41.42-92.33-92.33s41.42-92.33,92.33-92.33,89.93,39.07,92.22,87.96c-8.1,5.92-35.57,21.82-76.72,2.04-49.49-23.79-67.33-19.12-83.47-11.47,0,0,33.77-15.29,76.04,29.31,35.25,37.2,65.61,29.04,74.72,25.31-15.09,30.49-46.53,51.52-82.79,51.52Z"/>
</svg>