<!-- Generated by IcoMoon.io -->
<svg version="1.1" xmlns="http://www.w3.org/2000/svg" width="32" height="32" viewBox="0 0 32 32">
<title>sitecore</title>
<path d="M20.229 20.8c-1.714 1.6-3.886 2.4-6.171 2.4-0.571 0-1.029 0-1.6-0.114 1.714-0.114 3.429-0.686 4.686-1.486 3.314-1.943 6.057-5.714 3.543-10.057l4-2.286c0.229 0.343 0.571 0.8 0.8 1.143 0.686 1.257 1.143 2.629 1.371 4h-4v0.571c0.114 2.171-0.914 4.229-2.629 5.829zM23.2 19.886l0.343-0.457 2.4 1.371c0.686-1.486 1.143-3.086 1.143-4.8 0-0.343 0-0.571 0-0.914h-3.429c0 4.8-4.571 8.8-9.371 8.8-2.057 0-4.229-0.571-5.943-1.714 0.571 0.571 1.143 0.914 1.829 1.371 4.457 2.514 10.4 0.914 13.029-3.657zM23.771 20.229c-2.857 4.914-9.143 6.629-14.057 3.771-2.171-1.257-3.771-3.2-4.571-5.486 0.229 1.029 0.686 2.057 1.257 2.971 3.086 5.257 9.829 7.086 15.086 4 1.829-1.029 3.2-2.514 4.114-4.229l-1.829-1.029zM5.943 21.829c3.2 5.6 10.4 7.429 15.886 4.229 5.6-3.2 7.429-10.4 4.229-15.886-3.2-5.6-10.286-7.543-15.886-4.229-5.6 3.2-7.543 10.286-4.229 15.886zM29.829 8c4.457 7.657 1.829 17.486-5.829 21.829-7.657 4.457-17.486 1.829-21.829-5.829-4.457-7.657-1.829-17.486 5.829-21.829 7.657-4.457 17.486-1.829 21.829 5.829z"></path>
</svg>
