<?xml version="1.0" encoding="utf-8"?>
<!-- Generator: Adobe Illustrator 23.0.0, SVG Export Plug-In . SVG Version: 6.00 Build 0)  -->
<svg version="1.1" id="Layer_1" xmlns="http://www.w3.org/2000/svg" xmlns:xlink="http://www.w3.org/1999/xlink" x="0px" y="0px"
	 viewBox="0 0 55.7 47" style="enable-background:new 0 0 55.7 47;" xml:space="preserve">
<style type="text/css">
	.st0{fill:#393939;}
	.st1{fill:#FFFFFF;}
</style>
<path class="st0" d="M16.4,42.9L4.8,23.4L16.4,3.9h23.2l11.6,19.5L39.6,42.9H16.4z M40.6,2l12.8,21.5L40.6,45H15.1L2.3,23.5L15.1,2
	H40.6 M41.7,0H13.9L0,23.5L13.9,47h27.8l13.9-23.5L41.7,0L41.7,0z"/>
<title>Artboard 1</title>
<path class="st1" d="M31.4,36.7l-2.9-4.8l-2.9,4.8l-8.1-13.5l0.9-0.5l7.2,12.1l2.3-3.8l-4.6-7.8l0.9-0.5l4.3,7.3l4.4-7.3l0.9,0.5
	l-4.7,7.8l2.3,3.8l7.3-12.1l0.9,0.5L31.4,36.7z M32.4,17.9h-8.6l-2.9,4.9L20,22.3l8.1-13.5l8.2,13.6l-0.9,0.5L32.4,17.9z M31.8,16.9
	l-3.7-6.2l-3.7,6.2H31.8z"/>
</svg>
