<svg xmlns="http://www.w3.org/2000/svg" viewBox="0 0 500 500"><defs><style>.svg-ring{fill:var(--svgring);}</style></defs><path id="ring" class="svg-ring" d="M250,67c48.8812,0,94.8364,19.0352,129.4005,53.5995,34.5643,34.5641,53.5995,80.5193,53.5995,129.4005s-19.0352,94.8364-53.5995,129.4005c-34.5641,34.5643-80.5193,53.5995-129.4005,53.5995s-94.8364-19.0352-129.4005-53.5995c-34.5643-34.5641-53.5995-80.5193-53.5995-129.4005s19.0352-94.8364,53.5995-129.4005c34.5641-34.5643,80.5193-53.5995,129.4005-53.5995M250,0C111.9289,0,0,111.9289,0,250s111.9289,250,250,250,250-111.9289,250-250S388.0711,0,250,0h0Z"/></svg>