<?xml version="1.0" encoding="UTF-8"?><svg id="uuid-243d3736-ccf6-4bba-8c43-f401b57ebe37" xmlns="http://www.w3.org/2000/svg" xmlns:xlink="http://www.w3.org/1999/xlink" viewBox="0 0 500 500"><defs><style>.uuid-ca246b3f-05f7-4aa5-9f43-009a2359b218{fill:url(#uuid-ce7576d6-fb86-4701-9f68-a19439b01c07);}</style><radialGradient id="uuid-ce7576d6-fb86-4701-9f68-a19439b01c07" cx="250" cy="250" fx="250" fy="250" r="250" gradientUnits="userSpaceOnUse"><stop offset=".5469" stop-color="#fff"/><stop offset="1" stop-color="#000"/></radialGradient></defs><path class="uuid-ca246b3f-05f7-4aa5-9f43-009a2359b218" d="M250,67c48.8812,0,94.8364,19.0352,129.4005,53.5995,34.5643,34.5641,53.5995,80.5193,53.5995,129.4005s-19.0352,94.8364-53.5995,129.4005c-34.5641,34.5643-80.5193,53.5995-129.4005,53.5995s-94.8364-19.0352-129.4005-53.5995c-34.5643-34.5641-53.5995-80.5193-53.5995-129.4005s19.0352-94.8364,53.5995-129.4005c34.5641-34.5643,80.5193-53.5995,129.4005-53.5995M250,0C111.9289,0,0,111.9289,0,250s111.9289,250,250,250,250-111.9289,250-250S388.0711,0,250,0h0Z"/></svg>