<?xml version="1.0" encoding="UTF-8"?><svg id="uuid-1aefda8d-21ef-450f-b4be-64ade217d89f" xmlns="http://www.w3.org/2000/svg" viewBox="0 0 536.4155 288.1486"><defs><style>.uuid-419ff2a8-e3e1-436e-b666-53fa221796ab{fill:#c5ced6;}.uuid-fd7f2ada-b1a1-4296-b691-b63d95e34076{fill:#808184;}.uuid-92c04da1-699b-4117-a822-ef32e64ff36f{fill:#7c828b;}.uuid-a4c3e206-ac6e-4496-b342-2ce7e72a8203{fill:#404041;}.uuid-23ff0542-90a2-4652-baf1-3a39c755c9af{fill:#a6a8ab;}</style></defs><path class="uuid-a4c3e206-ac6e-4496-b342-2ce7e72a8203" d="M459.6647,0H77.4288C72.1273,0,67.7907,4.3367,67.7907,9.6327v254.7382h401.5029V9.6327C469.2936,4.3367,464.9583,0,459.6647,0ZM451.8337,251.8781H85.655V16.5969h366.1786v235.2812Z"/><polygon class="uuid-92c04da1-699b-4117-a822-ef32e64ff36f" points="512.3232 288.1486 24.092 288.1486 0 279.3142 536.4155 279.3142 512.3232 288.1486"/><path class="uuid-fd7f2ada-b1a1-4296-b691-b63d95e34076" d="M269.8783,9.942c0,.941-.7574,1.7037-1.7062,1.7037-.9398,0-1.7051-.7627-1.7051-1.7037,0-.9476.7653-1.7091,1.7051-1.7091.9488,0,1.7062.7615,1.7062,1.7091Z"/><rect class="uuid-23ff0542-90a2-4652-baf1-3a39c755c9af" x="224.5765" y="264.33" width="86.9281" height="8.829"/><path class="uuid-419ff2a8-e3e1-436e-b666-53fa221796ab" d="M304.6105,264.33v3.208c0,2.2085-1.8055,4.0177-4.0141,4.0177h-65.0483c-2.2034,0-4.0113-1.8092-4.0113-4.0177v-3.208H0v14.9842h536.4155v-14.9842h-231.805Z"/></svg>