<svg id="Layer_1" data-name="Layer 1" xmlns="http://www.w3.org/2000/svg" viewBox="0 0 480 320"><defs><style>.cls-1{fill:#393939;}.cls-2{fill:#6e6e6e;}.cls-3{fill:#010101;}.cls-4{font-size:7.31px;font-family:OpenSans-BoldItalic, Open Sans;font-weight:700;font-style:italic;}.cls-4,.cls-5{fill:#fff;}.cls-5{opacity:0.2;}</style></defs><title>tv</title><path class="cls-1" d="M4.06,0A4.07,4.07,0,0,0,0,4.06V286A4.07,4.07,0,0,0,4.06,290H475.64A4.07,4.07,0,0,0,479.7,286V4.06A4.07,4.07,0,0,0,475.64,0ZM457.19,260.36a4.07,4.07,0,0,1-4.06,4.06H26.23a4.07,4.07,0,0,1-4.06-4.06V24.78a4.07,4.07,0,0,1,4.06-4.06h426.9a4.07,4.07,0,0,1,4.06,4.06Z"/><path class="cls-2" d="M326.8,309.81h-5v1.14c-11-2.95-43.16-5.09-81.54-5.09-38.18,0-71.37,2.12-81.36,5v-1.09h-4v3h-.75c.34,5,38.54,7.2,85.61,7.2s85.27-2.21,85.61-7.2h1.43Z"/><ellipse class="cls-1" cx="239.85" cy="309.86" rx="85.62" ry="7.26"/><rect class="cls-2" x="216.87" y="295.82" width="44.97" height="10.99" rx="1.62" ry="1.62"/><path class="cls-3" d="M477.09,289.82H2.61s-.82,2,6.13,2.59,83.35,5,231.16,5,224.16-4.37,231.11-5S477.09,289.82,477.09,289.82Z"/><text class="cls-4" transform="translate(230.39 280.78)">HDTV</text><path class="cls-5" d="M279.37,0S337,79.07,347.25,91.31s85.9,123.37,90.1,129.06,34.25,47.81,38.44,54.24,4.19,11,4.19,11,.62-159.27-6-192.1S458.4,0,438,0Z"/></svg>