<?xml version="1.0" encoding="UTF-8"?>
<svg id="Layer_1" xmlns="http://www.w3.org/2000/svg" xmlns:xlink="http://www.w3.org/1999/xlink" version="1.1" viewBox="0 0 400 400">
  <!-- Generator: Adobe Illustrator 29.4.0, SVG Export Plug-In . SVG Version: 2.1.0 Build 152)  -->
  <defs>
    <style>
      .st0 {
        fill: url(#linear-gradient3);
      }

      .st1 {
        fill: url(#linear-gradient5);
      }

      .st2 {
        fill: url(#linear-gradient6);
        opacity: 0;
      }

      .st2, .st3, .st4, .st5, .st6, .st7 {
        isolation: isolate;
      }

      .st8 {
        fill: url(#radial-gradient);
      }

      .st9 {
        fill: url(#linear-gradient);
      }

      .st10 {
        fill: #fff;
      }

      .st3 {
        fill: url(#radial-gradient2);
      }

      .st3, .st4 {
        opacity: .5;
      }

      .st4 {
        fill: url(#radial-gradient1);
      }

      .st11 {
        fill: #a0cb29;
      }

      .st5 {
        fill: url(#linear-gradient1);
      }

      .st5, .st6 {
        opacity: .3;
      }

      .st6 {
        fill: url(#linear-gradient2);
      }

      .st7 {
        fill: url(#linear-gradient4);
        opacity: .2;
      }
    </style>
    <radialGradient id="radial-gradient" cx="198.76" cy="2403.66" fx="198.76" fy="2403.66" r="61.48" gradientTransform="translate(17.62 -132.61) scale(.91 .18)" gradientUnits="userSpaceOnUse">
      <stop offset="0" stop-color="#323232" stop-opacity=".9"/>
      <stop offset=".2" stop-color="#272727" stop-opacity=".6"/>
      <stop offset=".6" stop-color="#0b0b0b" stop-opacity=".2"/>
      <stop offset=".8" stop-color="#000" stop-opacity="0"/>
    </radialGradient>
    <linearGradient id="linear-gradient" x1="196.29" y1="476.23" x2="196.29" y2="210.14" gradientTransform="translate(0 -199)" gradientUnits="userSpaceOnUse">
      <stop offset="0" stop-color="#3d6a06"/>
      <stop offset=".2" stop-color="#588710"/>
      <stop offset=".3" stop-color="#6d9d18"/>
      <stop offset=".5" stop-color="#7bae1e"/>
      <stop offset=".7" stop-color="#84b721"/>
      <stop offset="1" stop-color="#87ba22"/>
    </linearGradient>
    <linearGradient id="linear-gradient1" x1="184.75" y1="536.76" x2="184.75" y2="223.01" gradientTransform="translate(0 -199)" gradientUnits="userSpaceOnUse">
      <stop offset="0" stop-color="#bbe882"/>
      <stop offset=".1" stop-color="#bee988" stop-opacity=".9"/>
      <stop offset=".3" stop-color="#c8ec9a" stop-opacity=".8"/>
      <stop offset=".6" stop-color="#d8f2b7" stop-opacity=".7"/>
      <stop offset=".8" stop-color="#eef9e0" stop-opacity=".5"/>
      <stop offset="1" stop-color="#fff" stop-opacity=".4"/>
    </linearGradient>
    <linearGradient id="linear-gradient2" x1="190.88" y1="521.08" x2="190.88" y2="241.23" gradientTransform="translate(0 -199)" gradientUnits="userSpaceOnUse">
      <stop offset="0" stop-color="#48790b"/>
      <stop offset=".8" stop-color="#fff" stop-opacity=".4"/>
    </linearGradient>
    <linearGradient id="linear-gradient3" x1="169.79" y1="561.1" x2="169.79" y2="465.39" gradientTransform="translate(0 -199)" gradientUnits="userSpaceOnUse">
      <stop offset="0" stop-color="#5e7814"/>
      <stop offset=".5" stop-color="#8aa21f"/>
      <stop offset="1" stop-color="#b1c628"/>
    </linearGradient>
    <linearGradient id="linear-gradient4" x1="166.71" y1="545.04" x2="168.11" y2="468.07" gradientTransform="translate(0 -199)" gradientUnits="userSpaceOnUse">
      <stop offset="0" stop-color="#82af10"/>
      <stop offset=".8" stop-color="#fff" stop-opacity="0"/>
    </linearGradient>
    <linearGradient id="linear-gradient5" x1="229.62" y1="564.16" x2="229.62" y2="478.01" gradientTransform="translate(0 -199)" gradientUnits="userSpaceOnUse">
      <stop offset="0" stop-color="#5e7814"/>
      <stop offset=".1" stop-color="#758e1a"/>
      <stop offset=".3" stop-color="#8fa620"/>
      <stop offset=".6" stop-color="#a2b824"/>
      <stop offset=".8" stop-color="#adc327"/>
      <stop offset="1" stop-color="#b1c628"/>
    </linearGradient>
    <linearGradient id="linear-gradient6" x1="208.56" y1="570.66" x2="208.56" y2="473.06" gradientTransform="translate(0 -199)" gradientUnits="userSpaceOnUse">
      <stop offset="0" stop-color="#fff"/>
      <stop offset="1" stop-color="#fff" stop-opacity="0"/>
    </linearGradient>
    <radialGradient id="radial-gradient1" cx="2714.04" cy="2846.1" fx="2714.04" fy="2846.1" r="65.39" gradientTransform="translate(-221.14 -177.3) scale(.18)" gradientUnits="userSpaceOnUse">
      <stop offset="0" stop-color="#323232"/>
      <stop offset=".3" stop-color="#252525" stop-opacity=".7"/>
      <stop offset=".8" stop-color="#040404" stop-opacity="0"/>
      <stop offset=".9" stop-color="#000" stop-opacity="0"/>
    </radialGradient>
    <radialGradient id="radial-gradient2" cx="2610.08" cy="2846.1" fx="2610.08" fy="2846.1" r="65.25" gradientTransform="translate(-221.14 -177.3) scale(.18)" gradientUnits="userSpaceOnUse">
      <stop offset="0" stop-color="#323232"/>
      <stop offset=".3" stop-color="#252525" stop-opacity=".7"/>
      <stop offset=".8" stop-color="#040404" stop-opacity="0"/>
      <stop offset=".9" stop-color="#000" stop-opacity="0"/>
    </radialGradient>
  </defs>
  <ellipse class="st8" cx="198.9" cy="364.39" rx="58.62" ry="12.11"/>
  <path class="st9" d="M178.25,337.25h39.12c-2.42-50.85-17.2-212.95-42.18-313.75,4.46,69.2,9.43,299.09,3.06,313.75Z"/>
  <path class="st5" d="M178.25,337.76h15.93c1.91-114.69-18.99-313.75-18.99-313.75,4.46,69.2,9.43,299.09,3.06,313.75Z"/>
  <path class="st6" d="M179.66,328.58l16.57,4.84s-1.15-40.78,10.07-59.26c3.19-21.15-23.19-214.22-30.2-247.1-.25-1.15-.64-2.42-.89-3.57,4.08,63.08,8.54,259.84,4.46,305.08h0Z"/>
  <g>
    <path class="st0" d="M177.11,366.94l24.72,1.02c.64-47.92-16.82-130.88-64.1-163.12,24.09,29.82,41.42,66.39,39.38,162.1h0Z"/>
    <path class="st7" d="M141.17,209.18c22.43,29.18,38.23,66.65,36.19,158.02l16.95.76c.64-18.48,1.02-115.71-53.14-158.79h0Z"/>
  </g>
  <g>
    <path class="st1" d="M224.13,368.6c.76,3.44-24.72,5.86-25.61,5.1-.89-.76-18.48-118.39,64.36-106.54-44.86,1.91-48.3,63.46-38.74,101.44Z"/>
    <path class="st2" d="M198.52,373.7c.51.38,9.05-.25,16.18-1.4-1.02-9.94-6.12-64.1,5.99-96.09-33.39,26.51-22.81,96.85-22.17,97.49h0Z"/>
  </g>
  <g>
    <ellipse class="st4" cx="206.54" cy="312.65" rx="11.34" ry="10.45"/>
    <ellipse class="st3" cx="189.85" cy="312.65" rx="11.34" ry="10.45"/>
    <circle class="st10" cx="189.85" cy="312.65" r="6.5"/>
    <circle class="st10" cx="206.29" cy="312.65" r="6.5"/>
  </g>
  <path class="st11" d="M143.46,351.65l9.3,15.93h5.1M169.21,374.46h11.21l-16.57-44.48M233.94,371.66h7.26l5.35-34.41M252.55,362.61h6.24l3.06-12.62"/>
</svg>