<svg id="Layer_1" data-name="Layer 1" xmlns="http://www.w3.org/2000/svg" viewBox="0 0 482 628"><defs><style>.cls-1{fill:#6e6e6e;}.cls-2{fill:#393939;}.cls-3,.cls-7{fill:#fff;}.cls-3{opacity:0.2;}.cls-4{fill:#1f1f1f;}.cls-5,.cls-6{fill:none;stroke-miterlimit:10;}.cls-5{stroke:#000;stroke-width:0.27px;}.cls-6{stroke:#fff;}</style></defs><title>ipad</title><rect class="cls-1" x="46" y="54" width="389" height="16"/><path class="cls-2" d="M21.74,0A21.81,21.81,0,0,0,0,21.74V606.26A21.81,21.81,0,0,0,21.74,628H460.26A21.81,21.81,0,0,0,482,606.26V21.74A21.81,21.81,0,0,0,460.26,0ZM435,548.26A21.81,21.81,0,0,1,413.26,570H69.74A21.81,21.81,0,0,1,48,548.26V75.74A21.81,21.81,0,0,1,69.74,54H413.26A21.81,21.81,0,0,1,435,75.74Z"/><path class="cls-3" d="M209.54,0s78.28,170,92.14,196.33S418.28,461.6,424,473.83s46.5,102.8,52.18,116.63,5.69,23.66,5.69,23.66.84-342.46-8.13-413S452.56,0,424.8,0Z"/><circle cx="240.81" cy="29.26" r="5.4"/><circle class="cls-4" cx="240.81" cy="598.67" r="13.88"/><rect class="cls-5" x="236.19" y="593.89" width="9.24" height="10.06" rx="1.36" ry="1.36"/><rect class="cls-6" x="408.5" y="58.5" width="12" height="7"/><path class="cls-7" d="M422,61.23v1.63h-1.36V61.23H422m1-1h-3.36v3.63H423V60.23Z"/><rect class="cls-7" x="410" y="60" width="8" height="4"/></svg>