<svg id="Layer_1" data-name="Layer 1" xmlns="http://www.w3.org/2000/svg" viewBox="0 0 56 47"><defs><style>.cls-1{fill:#393939;}.cls-2{fill:#fff;}</style></defs><title>logo</title><g id="Logo"><polygon class="cls-1" points="16.36 42.9 4.77 23.4 16.36 3.9 39.56 3.9 51.15 23.4 39.56 42.9 16.36 42.9"/><polygon class="cls-2" points="35.37 22.81 28.07 10.68 20.87 22.79 20.01 22.27 28.07 8.73 36.22 22.29 35.37 22.81"/><polygon class="cls-2" points="25.6 36.68 17.54 23.14 18.4 22.63 25.61 34.73 32.9 22.61 33.76 23.13 25.6 36.68"/><polygon class="cls-2" points="31.36 36.68 23.3 23.14 24.16 22.63 31.36 34.73 38.66 22.61 39.51 23.13 31.36 36.68"/><rect class="cls-2" x="23.24" y="16.9" width="9.46" height="1"/><path class="cls-1" d="M40.58,2,53.33,23.5,40.58,45H15.08L2.33,23.5,15.08,2h25.5m1.14-2H13.94L0,23.5,13.94,47H41.71L55.65,23.5,41.71,0Z"/></g></svg>