<?xml version="1.0" encoding="UTF-8"?>
<svg id="svg3476" xmlns="http://www.w3.org/2000/svg" xmlns:svg="http://www.w3.org/2000/svg" xmlns:sodipodi="http://sodipodi.sourceforge.net/DTD/sodipodi-0.dtd" xmlns:rdf="http://www.w3.org/1999/02/22-rdf-syntax-ns#" xmlns:inkscape="http://www.inkscape.org/namespaces/inkscape" xmlns:dc="http://purl.org/dc/elements/1.1/" xmlns:cc="http://creativecommons.org/ns#" version="1.1" viewBox="0 0 400 400">
  <!-- Generator: Adobe Illustrator 29.0.0, SVG Export Plug-In . SVG Version: 2.1.0 Build 186)  -->
  <defs>
    <style>
      .st0 {
        fill: #ebebeb;
      }

      .st1 {
        fill: #2965f1;
      }

      .st2 {
        fill: #fff;
      }

      .st3 {
        fill: #264de4;
      }
    </style>
  </defs>
  <sodipodi:namedview id="base" bordercolor="#666666" borderopacity="1.0" fit-margin-bottom="0" fit-margin-left="0" fit-margin-right="0" fit-margin-top="0" inkscape:current-layer="layer1" inkscape:cx="181.367" inkscape:cy="256" inkscape:document-units="px" inkscape:pageopacity="0.0" inkscape:pageshadow="2" inkscape:window-height="704" inkscape:window-maximized="1" inkscape:window-width="1366" inkscape:window-x="0" inkscape:window-y="27" inkscape:zoom="0.35" pagecolor="#ffffff" showgrid="false"/>
  <g id="layer1" inkscape:groupmode="layer" inkscape:label="Calque 1">
    <g id="g3013">
      <polygon id="polygon2989" class="st3" points="341.7 78.6 315.9 367.8 199.8 400 84.1 367.9 58.3 78.6 341.7 78.6"/>
      <polygon id="polygon2991" class="st1" points="293.8 349.4 315.8 102.3 200 102.3 200 375.4 293.8 349.4"/>
      <polygon id="polygon2993" class="st0" points="117.4 209.5 120.6 245 200 245 200 209.5 117.4 209.5"/>
      <polygon id="polygon2995" class="st0" points="200 137.7 199.9 137.7 111 137.7 114.3 173.2 200 173.2 200 137.7"/>
      <polygon id="polygon2997" class="st0" points="200 338.6 200 301.7 199.8 301.7 160.3 291.1 157.8 262.8 138.6 262.8 122.2 262.8 127.2 318.5 199.8 338.6 200 338.6"/>
      <path id="path2999" d="M125,0h43v18h-25v18h25v18h-43V0Z" inkscape:connector-curvature="0"/>
      <path id="path3001" d="M176.6,0h43v15.6h-25v3.1h25v35.9h-43v-16.4h25v-3.1h-25V0Z" inkscape:connector-curvature="0"/>
      <path id="path3003" d="M228.1,0h43v15.6h-25v3.1h25v35.9h-43v-16.4h25v-3.1h-25V0Z" inkscape:connector-curvature="0"/>
      <polygon id="polygon3005" class="st2" points="243.6 245 239.4 291 199.9 301.7 199.9 338.6 272.6 318.5 273.1 312.5 281.5 219.1 282.3 209.5 288.7 137.7 199.9 137.7 199.9 173.2 249.9 173.2 246.6 209.5 199.9 209.5 199.9 245 243.6 245"/>
    </g>
  </g>
</svg>