<?xml version="1.0" encoding="UTF-8"?><svg id="uuid-7842ecbd-4440-4d0d-96ca-ce74b237a252" xmlns="http://www.w3.org/2000/svg" viewBox="0 0 400 400"><defs><style>.uuid-46e50d30-95a6-4131-a944-7dd84b1ed901{fill:#009cde;}</style></defs><path class="uuid-46e50d30-95a6-4131-a944-7dd84b1ed901" d="M243.6128,120.5344c-19.4489-19.4489-38.1121-38.0138-43.6128-59.0344-5.5007,20.9223-24.1638,39.4872-43.6128,59.0344-29.2716,29.1734-62.3741,62.2759-62.3741,111.9787,0,58.5433,47.4436,105.9869,105.9869,105.9869s105.9869-47.4436,105.9869-105.9869c0-49.7028-33.2007-82.8053-62.3741-111.9787M139.0011,257.1681c-6.483-.1965-30.4504-41.55,14.0465-85.5557l29.4681,32.1202c.9823.9823.9823,2.5539,0,3.5362q-.0982.0982-.1965.1965c-7.0723,7.1706-36.9333,37.228-40.666,47.6401-.7858,2.161-1.9645,2.0628-2.6521,2.0628M200,311.6841c-20.1365,0-36.4422-16.3057-36.4422-36.4422h0c0-9.2333,3.6344-17.4844,9.0369-24.0656,6.5812-8.0546,27.4053-30.6468,27.4053-30.6468,0,0,20.4312,22.9851,27.3071,30.5486,5.9919,6.5812,9.2333,15.2252,9.1351,24.1638,0,20.1365-16.3057,36.4422-36.4422,36.4422M269.7411,252.5514c-.7858,1.6699-2.5539,4.6167-5.0096,4.7149-4.322.1965-4.7149-2.0628-7.9564-6.7777-6.9741-10.3138-67.6784-73.7684-79.0727-86.0468-10.0191-10.805-1.3752-18.3684,2.5539-22.3957,5.0096-5.0096,19.5472-19.5472,19.5472-19.5472,0,0,43.5145,41.2553,61.5883,69.4465,18.0738,28.1911,11.9837,52.5514,8.3493,60.606"/></svg>