<?xml version="1.0" encoding="UTF-8"?>
<svg id="Layer_1" xmlns="http://www.w3.org/2000/svg" version="1.1" viewBox="0 0 400 400">
  <!-- Generator: Adobe Illustrator 29.0.0, SVG Export Plug-In . SVG Version: 2.1.0 Build 186)  -->
  <defs>
    <style>
      .st0 {
        fill: #ebebeb;
      }

      .st1 {
        fill: #f16529;
      }

      .st2 {
        fill: #e44d26;
      }

      .st3 {
        fill: #fff;
      }
    </style>
  </defs>
  <path d="M120.1,61.5h12.4v12.3h11.5v-12.3h12.4v37.3h-12.4v-12.4h-11.4v12.4h-12.6M172.9,73.9h-11v-12.4h34.5v12.4h-11v24.9h-12.4M201.9,61.5h13l8,13.1,8-13.1h13v37.3h-12.4v-18.5l-8.7,13.4-8.7-13.4v18.5h-12.2M250.2,61.5h12.4v25h17.6v12.3h-30.1"/>
  <path class="st2" d="M119.7,316.3l-17.9-200.4h196.3l-17.9,200.3-80.4,22.3"/>
  <path class="st1" d="M200,321.5v-189.1h80.2l-15.3,171"/>
  <path class="st0" d="M138.3,156.9h61.7v24.6h-34.7l2.3,25.2h32.5v24.5h-55M146.1,243.4h24.7l1.7,19.6,27.5,7.4v25.6l-50.4-14.1"/>
  <path class="st3" d="M261.5,156.9h-61.6v24.6h59.3M257,206.6h-57.1v24.6h30.3l-2.9,31.9-27.4,7.4v25.5l50.3-14"/>
</svg>