<?xml version="1.0" encoding="UTF-8"?>
<svg id="Layer_1" xmlns="http://www.w3.org/2000/svg" version="1.1" viewBox="0 0 400 400">
  <!-- Generator: Adobe Illustrator 29.0.0, SVG Export Plug-In . SVG Version: 2.1.0 Build 186)  -->
  <defs>
    <style>
      .st0 {
        fill: #f7df1e;
      }
    </style>
  </defs>
  <rect class="st0" width="400" height="400"/>
  <path d="M268.7,312.5c8.1,13.2,18.5,22.8,37.1,22.8s25.5-7.8,25.5-18.5-10.2-17.5-27.4-25l-9.4-4c-27.1-11.6-45.1-26-45.1-56.6s21.5-49.7,55-49.7,41.1,8.3,53.5,30.1l-29.3,18.8c-6.4-11.6-13.4-16.1-24.2-16.1s-18,7-18,16.1,7,15.8,23.1,22.8l9.4,4c31.9,13.7,50,27.7,50,59s-26.6,52.4-62.3,52.4-57.5-16.6-68.5-38.4l30.5-17.7ZM135.9,315.8c5.9,10.5,11.3,19.3,24.2,19.3s20.1-4.8,20.1-23.6v-127.8h37.6v128.3c0,38.9-22.8,56.6-56.1,56.6s-47.5-15.6-56.4-34.3l30.6-18.5Z"/>
</svg>