<?xml version="1.0" encoding="UTF-8"?>
<svg id="Layer_1" xmlns="http://www.w3.org/2000/svg" version="1.1" viewBox="0 0 400 400">
  <!-- Generator: Adobe Illustrator 29.0.0, SVG Export Plug-In . SVG Version: 2.1.0 Build 186)  -->
  <defs>
    <style>
      .st0 {
        fill: #f7df1e;
      }
    </style>
  </defs>
  <rect class="st0" width="400" height="400"/>
  <path d="M247.6,277.9c5.6,9.1,12.8,15.8,25.7,15.8s17.7-5.4,17.7-12.8-7.1-12.1-19-17.3l-6.5-2.8c-18.8-8-31.3-18-31.3-39.2s14.9-34.4,38.1-34.4,28.4,5.8,37,20.8l-20.3,13c-4.5-8-9.3-11.2-16.8-11.2s-12.5,4.8-12.5,11.2,4.8,11,16,15.8l6.5,2.8c22.1,9.5,34.6,19.2,34.6,40.9s-18.4,36.3-43.1,36.3-39.8-11.5-47.4-26.6l21.2-12.3ZM155.6,280.2c4.1,7.3,7.8,13.4,16.8,13.4s13.9-3.3,13.9-16.4v-88.5h26v88.9c0,27-15.8,39.2-38.9,39.2s-32.9-10.8-39-23.8l21.2-12.8Z"/>
</svg>