<?xml version="1.0" encoding="UTF-8"?>
<svg id="svg3430" xmlns="http://www.w3.org/2000/svg" xmlns:xlink="http://www.w3.org/1999/xlink" xmlns:svg="http://www.w3.org/2000/svg" xmlns:rdf="http://www.w3.org/1999/02/22-rdf-syntax-ns#" xmlns:dc="http://purl.org/dc/elements/1.1/" xmlns:cc="http://creativecommons.org/ns#" version="1.1" viewBox="0 0 400 400">
  <!-- Generator: Adobe Illustrator 29.0.0, SVG Export Plug-In . SVG Version: 2.1.0 Build 186)  -->
  <defs>
    <style>
      .st0 {
        fill: none;
      }

      .st1 {
        fill: #777bb3;
      }

      .st2 {
        clip-path: url(#clippath-1);
      }

      .st3 {
        fill: #fff;
      }

      .st4 {
        clip-path: url(#clippath);
      }
    </style>
    <clipPath id="clippath">
      <rect class="st0" x="61.5" y="122.1" width="277" height="155.8"/>
    </clipPath>
    <clipPath id="clippath-1">
      <rect class="st0" x="-37.3" y="66.5" width="474.7" height="267"/>
    </clipPath>
  </defs>
  <rect class="st1" width="400" height="400"/>
  <g class="st4">
    <path id="path3474" class="st1" d="M200,264.7c70.6,0,127.8-29,127.8-64.7s-57.2-64.7-127.8-64.7-127.8,29-127.8,64.7,57.2,64.7,127.8,64.7"/>
  </g>
  <g class="st2">
    <path id="path3486" d="M95.9,213.8c9.9,0,17.4-1.8,22.1-5.4,4.6-3.6,7.9-9.8,9.5-18.4,1.6-8.1,1-13.7-1.8-16.8-2.8-3.1-8.9-4.7-18-4.7h-15.9l-8.8,45.3h12.9ZM44,269.6c-.7,0-1.4-.3-1.9-.9-.5-.6-.7-1.3-.5-2l23.3-120.1c.2-1.2,1.2-2,2.4-2h50.3c15.8,0,27.6,4.3,35,12.8,7.4,8.5,9.7,20.4,6.8,35.4-1.2,6.1-3.2,11.8-6,16.8-2.8,5.1-6.6,9.8-11.1,14-5.5,5.1-11.6,8.8-18.3,11-6.6,2.1-15.1,3.2-25.2,3.2h-20.4l-5.8,29.9c-.2,1.2-1.2,2-2.4,2h-26.2Z"/>
    <path id="path3490" class="st3" d="M93.9,170.9h13.9c11.1,0,14.9,2.4,16.2,3.9,2.2,2.4,2.6,7.5,1.2,14.6-1.6,8-4.5,13.7-8.6,16.9-4.3,3.3-11.2,4.9-20.6,4.9h-9.9l7.8-40.4ZM117.6,142.1h-50.3c-2.4,0-4.4,1.7-4.9,4l-23.3,120.1c-.3,1.4,0,2.9,1,4.1.9,1.1,2.3,1.8,3.8,1.8h26.2c2.4,0,4.4-1.7,4.9-4l5.4-27.9h18.3c10.4,0,19.1-1.1,25.9-3.4,7-2.3,13.5-6.2,19.2-11.5,4.7-4.4,8.6-9.3,11.6-14.6,3-5.3,5.1-11.2,6.3-17.6,3.1-15.7.6-28.3-7.4-37.5-7.9-9-20.3-13.6-36.8-13.6M80,216.2h15.9c10.5,0,18.4-2,23.6-6,5.2-4,8.6-10.6,10.5-19.9,1.7-8.9.9-15.2-2.4-18.9-3.3-3.7-9.9-5.5-19.9-5.5h-17.9l-9.8,50.3M117.6,147c15.1,0,26.2,4,33.1,11.9,6.9,7.9,9,19,6.3,33.3-1.1,5.9-3.1,11.2-5.8,16.1-2.7,4.9-6.3,9.3-10.6,13.3-5.2,4.9-11,8.4-17.4,10.4-6.4,2.1-14.5,3.1-24.4,3.1h-22.4l-6.2,31.9h-26.2l23.3-120.1h50.3"/>
    <path id="path3494" d="M219.4,237.7c-.7,0-1.4-.3-1.9-.9-.5-.6-.7-1.3-.5-2l10.3-53.1c1-5.1.7-8.7-.7-10.2-.9-.9-3.5-2.5-11.2-2.5h-18.7l-13,66.8c-.2,1.2-1.2,2-2.4,2h-26c-.7,0-1.4-.3-1.9-.9-.5-.6-.7-1.3-.5-2l23.3-120.1c.2-1.2,1.2-2,2.4-2h26c.7,0,1.4.3,1.9.9.5.6.7,1.3.5,2l-5.6,29h20.1c15.3,0,25.7,2.7,31.8,8.3,6.2,5.7,8.1,14.7,5.7,27l-10.9,55.9c-.2,1.2-1.2,2-2.4,2h-26.4Z"/>
    <path id="path3498" class="st3" d="M204.7,110.1h-26c-2.4,0-4.4,1.7-4.9,4l-23.3,120.1c-.3,1.4,0,2.9,1,4.1.9,1.1,2.3,1.8,3.8,1.8h26c2.4,0,4.4-1.7,4.9-4l12.6-64.8h16.7c7.7,0,9.3,1.6,9.4,1.7.5.5,1.1,2.8,0,8.1l-10.3,53.1c-.3,1.4,0,2.9,1,4.1.9,1.1,2.3,1.8,3.8,1.8h26.4c2.4,0,4.4-1.7,4.9-4l10.9-55.9c2.5-13.1.4-23-6.5-29.3-6.5-6-17.5-8.9-33.5-8.9h-17.1l5.1-26c.3-1.4,0-2.9-1-4.1-.9-1.1-2.3-1.8-3.8-1.8M204.7,115.1l-6.2,31.9h23.1c14.6,0,24.6,2.5,30.1,7.6,5.5,5.1,7.2,13.3,5,24.7l-10.9,55.9h-26.4l10.3-53.1c1.2-6,.7-10.2-1.3-12.4-2-2.2-6.4-3.3-13-3.3h-20.7l-13.4,68.8h-26l23.3-120.1h26"/>
    <path id="path3502" d="M300.2,213.8c9.9,0,17.4-1.8,22.1-5.4,4.6-3.6,7.9-9.8,9.5-18.4,1.6-8.1,1-13.7-1.8-16.8-2.8-3.1-8.9-4.7-18-4.7h-15.9l-8.8,45.3h12.9ZM248.2,269.6c-.7,0-1.4-.3-1.9-.9-.5-.6-.7-1.3-.5-2l23.3-120.1c.2-1.2,1.2-2,2.4-2h50.3c15.8,0,27.6,4.3,35,12.8,7.4,8.5,9.7,20.4,6.8,35.4-1.2,6.1-3.2,11.8-6.1,16.8-2.8,5.1-6.6,9.8-11.1,14-5.5,5.1-11.6,8.8-18.3,11-6.6,2.1-15.1,3.2-25.2,3.2h-20.4l-5.8,29.9c-.2,1.2-1.2,2-2.4,2h-26.2Z"/>
    <path id="path3506" class="st3" d="M298.1,170.9h13.9c11.1,0,14.9,2.4,16.2,3.9,2.2,2.4,2.6,7.5,1.2,14.6-1.6,8-4.5,13.7-8.6,16.9-4.3,3.3-11.2,4.9-20.6,4.9h-9.9l7.8-40.4ZM321.9,142.1h-50.3c-2.4,0-4.4,1.7-4.9,4l-23.3,120.1c-.3,1.4,0,2.9,1,4.1.9,1.1,2.3,1.8,3.8,1.8h26.2c2.4,0,4.4-1.7,4.9-4l5.4-27.9h18.3c10.4,0,19.1-1.1,25.9-3.4,7-2.3,13.5-6.2,19.2-11.5,4.7-4.4,8.6-9.3,11.6-14.5,3-5.3,5.1-11.2,6.3-17.6,3.1-15.7.6-28.4-7.4-37.5-7.9-9-20.3-13.6-36.8-13.6M284.3,216.2h15.9c10.5,0,18.4-2,23.6-6,5.2-4,8.6-10.6,10.5-19.9,1.7-8.9.9-15.2-2.4-18.9-3.3-3.7-9.9-5.5-19.9-5.5h-17.9l-9.8,50.3M321.9,147c15.1,0,26.2,4,33.1,11.9,6.9,7.9,9,19,6.3,33.3-1.1,5.9-3.1,11.2-5.8,16.1-2.7,4.9-6.3,9.3-10.6,13.3-5.2,4.9-11,8.4-17.4,10.4-6.4,2.1-14.5,3.1-24.4,3.1h-22.4l-6.2,31.9h-26.2l23.3-120.1h50.3"/>
  </g>
</svg>