<?xml version="1.0" encoding="UTF-8"?>
<svg id="Layer_1" xmlns="http://www.w3.org/2000/svg" version="1.1" viewBox="0 0 400 400">
  <!-- Generator: Adobe Illustrator 29.0.0, SVG Export Plug-In . SVG Version: 2.1.0 Build 186)  -->
  <defs>
    <style>
      .st0 {
        fill: #61dafb;
      }
    </style>
  </defs>
  <path class="st0" d="M200,175.3c13.6,0,24.7,11.1,24.7,24.7s-11.1,24.7-24.7,24.7-24.7-11.1-24.7-24.7,11.1-24.7,24.7-24.7ZM200,256.6c-77.7,0-138.5-24.9-138.5-56.6s60.8-56.6,138.5-56.6,138.5,24.9,138.5,56.6-60.8,56.6-138.5,56.6ZM200,155.4c-74.5,0-126.5,23.5-126.5,44.6s51.9,44.6,126.5,44.6,126.5-23.5,126.5-44.6-51.9-44.6-126.5-44.6ZM255.3,323.5c-12.3,0-27.1-6.7-43.2-19.8-21.3-17.3-43-44.1-61.1-75.4-18-31.3-30.4-63.4-34.7-90.6-4.7-29.1.5-49.6,14.5-57.7,27.5-15.8,79.4,24.4,118.3,91.6h0c18.1,31.3,30.4,63.4,34.7,90.6,4.7,29.1-.5,49.6-14.5,57.6-4.1,2.4-8.8,3.6-14,3.6ZM144.7,88.5c-3,0-5.7.6-7.9,1.9-9.3,5.3-12.4,21.9-8.6,45.3,4.1,25.7,15.9,56.5,33.3,86.5,17.3,30,38,55.6,58.3,72,18.4,15,34.3,20.5,43.6,15.2,9.2-5.3,12.4-21.9,8.6-45.3-4.1-25.7-15.9-56.4-33.3-86.5h0c-32.7-56.6-72.4-89.2-93.9-89.2ZM144.7,323.5c-5.1,0-9.8-1.2-14-3.6-14-8.1-19.2-28.6-14.5-57.6,4.4-27.2,16.7-59.3,34.7-90.6,38.8-67.2,90.7-107.5,118.3-91.6,27.5,15.9,18.6,81-20.2,148.3h0c-18.1,31.3-39.7,58-61.1,75.4-16.1,13.1-31,19.8-43.2,19.8ZM255.3,88.5c-21.6,0-61.2,32.5-93.9,89.2-17.3,30-29.2,60.7-33.3,86.5-3.8,23.5-.6,40,8.6,45.3,9.3,5.3,25.1-.2,43.6-15.2,20.2-16.4,40.9-42,58.3-72,37.2-64.5,42.9-121.3,24.6-131.8-2.2-1.3-4.9-1.9-7.9-1.9Z"/>
</svg>