<?xml version="1.0" encoding="UTF-8"?>
<svg id="Layer_1" xmlns="http://www.w3.org/2000/svg" version="1.1" viewBox="0 0 400 400">
  <!-- Generator: Adobe Illustrator 29.0.0, SVG Export Plug-In . SVG Version: 2.1.0 Build 186)  -->
  <defs>
    <style>
      .st0 {
        fill: #61dafb;
      }
    </style>
  </defs>
  <path class="st0" d="M200,164.3c19.7,0,35.7,16,35.7,35.7s-16,35.7-35.7,35.7-35.7-16-35.7-35.7,16-35.7,35.7-35.7ZM200,281.7C87.8,281.7,0,245.8,0,199.9s87.8-81.7,200-81.7,200,35.9,200,81.7-87.9,81.7-200,81.7ZM200,135.6c-107.6,0-182.6,33.9-182.6,64.4s75,64.3,182.6,64.3,182.6-33.9,182.6-64.3-75-64.4-182.6-64.4ZM279.8,378.3c-17.7,0-39.1-9.7-62.4-28.6-30.8-25.1-62.1-63.7-88.2-108.8-26.1-45.2-43.9-91.6-50.2-130.8-6.7-42,.7-71.6,20.9-83.3,39.8-22.8,114.7,35.2,170.8,132.3h0c26.1,45.1,43.9,91.6,50.2,130.8,6.7,42-.7,71.6-21,83.2-6,3.5-12.7,5.2-20.2,5.2ZM120.1,39c-4.3,0-8.2.9-11.4,2.8-13.4,7.7-17.9,31.6-12.5,65.4,6,37.2,23,81.5,48.1,124.9,25,43.4,54.9,80.3,84.1,104,26.6,21.7,49.6,29.6,62.9,21.9,13.3-7.7,17.9-31.6,12.5-65.5-6-37.2-23-81.5-48-124.9h0C208.5,86,151.2,39,120.1,39ZM120.2,378.3c-7.4,0-14.2-1.7-20.2-5.2-20.2-11.7-27.7-41.2-20.9-83.2,6.3-39.2,24.1-85.7,50.2-130.8C185.3,62,260.2,3.8,300,26.7c39.7,22.9,26.9,116.9-29.2,214.1h0c-26.1,45.1-57.4,83.8-88.2,108.8-23.3,18.9-44.7,28.6-62.4,28.6ZM279.9,39c-31.1,0-88.4,47-135.6,128.7-25,43.4-42.1,87.7-48.1,124.9-5.4,33.9-.9,57.7,12.5,65.4,13.4,7.7,36.3-.3,62.9-21.9,29.2-23.7,59.1-60.7,84.1-104,53.8-93.2,61.9-175.1,35.6-190.3-3.2-1.9-7.1-2.8-11.4-2.8Z"/>
</svg>