<?xml version="1.0" encoding="UTF-8"?>
<svg id="Layer_1" xmlns="http://www.w3.org/2000/svg" xmlns:xlink="http://www.w3.org/1999/xlink" version="1.1" viewBox="0 0 400 400">
  <!-- Generator: Adobe Illustrator 29.0.0, SVG Export Plug-In . SVG Version: 2.1.0 Build 186)  -->
  <defs>
    <style>
      .st0 {
        mask: url(#mask);
      }

      .st1 {
        fill: #ff4785;
      }

      .st2 {
        fill-rule: evenodd;
      }

      .st2, .st3 {
        fill: #fff;
      }

      .st4 {
        mask: url(#mask-1);
      }
    </style>
    <mask id="mask" x="81.8" y="61.5" width="224.6" height="277" maskUnits="userSpaceOnUse">
      <g id="mask-2">
        <path id="path-1" class="st2" d="M90.5,316.7l-8.7-228.6c-.3-7.6,5.6-14,13.2-14.4l196.5-12.2c7.8-.5,14.4,5.4,14.9,13,0,.3,0,.6,0,.9v249.1c0,7.7-6.3,13.9-14.1,13.9s-.4,0-.6,0l-187.8-8.3c-7.3-.3-13.2-6.1-13.4-13.4Z"/>
      </g>
    </mask>
    <mask id="mask-1" x="81.8" y="61.5" width="224.6" height="277" maskUnits="userSpaceOnUse">
      <g id="mask-21" data-name="mask-2">
        <path id="path-11" data-name="path-1" class="st2" d="M90.5,316.7l-8.7-228.6c-.3-7.6,5.6-14,13.2-14.4l196.5-12.2c7.8-.5,14.4,5.4,14.9,13,0,.3,0,.6,0,.9v249.1c0,7.7-6.3,13.9-14.1,13.9s-.4,0-.6,0l-187.8-8.3c-7.3-.3-13.2-6.1-13.4-13.4Z"/>
      </g>
    </mask>
  </defs>
  <polygon class="st3" points="139.7 70.9 284.5 62.5 284.5 322.1 120.5 315.4 107.9 108.6 139.7 70.9"/>
  <g id="icon-storybook-default">
    <g id="icon">
      <path id="Combined-Shape" class="st1" d="M306.4,74.6c0,.3,0,.6,0,.9v249.1c0,7.7-6.3,13.9-14.1,13.9s-.4,0-.6,0l-187.8-8.3c-7.3-.3-13.2-6.1-13.4-13.4l-8.7-228.6c-.3-7.6,5.6-14,13.2-14.4l154-9.5-1.3,31.4c0,.4,0,.7.2,1l.2.3c.7.9,2,1.1,2.9.4h0l12.3-9.2,10.4,8.1c.4.3.9.5,1.4.4,1.2,0,2.1-1,2-2.1h0l-1.2-32,15.5-1c7.8-.5,14.4,5.4,14.9,13Z"/>
      <g class="st0">
        <path id="S" class="st3" d="M213.2,165.9c0,5.4,36.9,2.8,41.8-1,0-36.9-20-56.3-56.6-56.3s-57.2,19.7-57.2,49.2c0,51.4,70.1,52.4,70.1,80.5s-3.9,12.6-12.5,12.6-15.6-5.6-15.1-24.8c0-4.2-42.6-5.5-43.9,0-3.3,46.5,26,59.9,59.5,59.9s57.9-17.1,57.9-48.1c0-55.1-71.2-53.7-71.2-81s8.3-12.6,13.2-12.6,14.5.9,13.8,21.6Z"/>
      </g>
      <g class="st4">
        <path id="bookmark" class="st3" d="M247.7,95.5l1.3-31.4,27-1.7,1.2,32c0,1.1-.9,2.1-2,2.1-.5,0-1-.1-1.4-.4l-10.4-8.1-12.3,9.2c-.9.7-2.2.5-2.9-.4-.3-.4-.4-.9-.4-1.3Z"/>
      </g>
    </g>
  </g>
</svg>