<?xml version="1.0" encoding="UTF-8"?><svg id="uuid-6137e08f-294d-4c63-95bd-19353761f303" xmlns="http://www.w3.org/2000/svg" xmlns:xlink="http://www.w3.org/1999/xlink" viewBox="0 0 400 400"><defs><style>.uuid-c314cac2-3f53-4bc9-a0f8-c0789d4022a6{fill:none;}.uuid-d2d9bba6-c620-44e6-846f-eb37805a19c8{clip-path:url(#uuid-4259094f-0d5f-483f-8d4f-19a97c1d39ff);}.uuid-03496dd3-50d9-4a70-b15e-430833c3067b{fill:#38bdf8;fill-rule:evenodd;}</style><clipPath id="uuid-4259094f-0d5f-483f-8d4f-19a97c1d39ff"><rect class="uuid-c314cac2-3f53-4bc9-a0f8-c0789d4022a6" x="61.5" y="116.5999" width="277" height="166.2001"/></clipPath></defs><g class="uuid-d2d9bba6-c620-44e6-846f-eb37805a19c8"><path class="uuid-03496dd3-50d9-4a70-b15e-430833c3067b" d="M200,116.5999c-36.9333,0-60.0167,18.4667-69.25,55.4,13.85-18.4667,30.0083-25.3917,48.475-20.775,10.5363,2.6315,18.0666,10.2798,26.4022,18.7385,13.5781,13.7833,29.2953,29.7365,63.6228,29.7365,36.9333,0,60.0167-18.4667,69.25-55.4-13.85,18.4667-30.0083,25.3917-48.475,20.775-10.5363-2.6315-18.0666-10.2798-26.4022-18.7385-13.5781-13.7833-29.2953-29.7365-63.6228-29.7365ZM130.75,199.7c-36.9333,0-60.0167,18.4667-69.25,55.4,13.85-18.4667,30.0083-25.3917,48.475-20.775,10.5363,2.6366,18.0666,10.2798,26.4022,18.7385,13.5781,13.7833,29.2953,29.7365,63.6228,29.7365,36.9333,0,60.0167-18.4667,69.25-55.4-13.85,18.4667-30.0083,25.3917-48.475,20.775-10.5363-2.6315-18.0666-10.2798-26.4022-18.7385-13.5781-13.7833-29.2953-29.7365-63.6228-29.7365Z"/></g></svg>