<?xml version="1.0" encoding="UTF-8"?>
<svg id="Layer_1" xmlns="http://www.w3.org/2000/svg" xmlns:xlink="http://www.w3.org/1999/xlink" version="1.1" viewBox="0 0 400 400">
  <!-- Generator: Adobe Illustrator 29.0.0, SVG Export Plug-In . SVG Version: 2.1.0 Build 186)  -->
  <defs>
    <style>
      .st0 {
        fill: url(#linear-gradient3);
      }

      .st1 {
        fill: url(#linear-gradient5);
      }

      .st2 {
        fill: url(#radial-gradient);
      }

      .st3 {
        fill: url(#linear-gradient);
      }

      .st4 {
        fill: #fff;
      }

      .st5 {
        fill: url(#radial-gradient2);
      }

      .st5, .st6 {
        opacity: .5;
      }

      .st5, .st6, .st7, .st8, .st9, .st10 {
        isolation: isolate;
      }

      .st6 {
        fill: url(#radial-gradient1);
      }

      .st11 {
        fill: #a0cb29;
      }

      .st7 {
        fill: url(#linear-gradient6);
        opacity: 0;
      }

      .st8 {
        fill: url(#linear-gradient2);
        opacity: .3;
      }

      .st9 {
        fill: url(#linear-gradient4);
        opacity: .2;
      }

      .st10 {
        fill: url(#linear-gradient1);
        opacity: .3;
      }
    </style>
    <radialGradient id="radial-gradient" cx="199.2" cy="-1242.7" fx="199.2" fy="-1242.7" r="44" gradientTransform="translate(0 34.5) scale(1 -.2)" gradientUnits="userSpaceOnUse">
      <stop offset="0" stop-color="#323232" stop-opacity=".9"/>
      <stop offset=".2" stop-color="#272727" stop-opacity=".6"/>
      <stop offset=".6" stop-color="#0b0b0b" stop-opacity=".2"/>
      <stop offset=".8" stop-color="#000" stop-opacity="0"/>
    </radialGradient>
    <linearGradient id="linear-gradient" x1="197.1" y1="140.4" x2="197.1" y2="349.2" gradientTransform="translate(0 401) scale(1 -1)" gradientUnits="userSpaceOnUse">
      <stop offset="0" stop-color="#3d6a06"/>
      <stop offset=".2" stop-color="#588710"/>
      <stop offset=".3" stop-color="#6d9d18"/>
      <stop offset=".5" stop-color="#7bae1e"/>
      <stop offset=".7" stop-color="#84b721"/>
      <stop offset="1" stop-color="#87ba22"/>
    </linearGradient>
    <linearGradient id="linear-gradient1" x1="188.1" y1="92.9" x2="188.1" y2="339.2" gradientTransform="translate(0 401) scale(1 -1)" gradientUnits="userSpaceOnUse">
      <stop offset="0" stop-color="#bbe882"/>
      <stop offset=".1" stop-color="#bee988" stop-opacity=".9"/>
      <stop offset=".3" stop-color="#c8ec9a" stop-opacity=".8"/>
      <stop offset=".6" stop-color="#d8f2b7" stop-opacity=".7"/>
      <stop offset=".8" stop-color="#eef9e0" stop-opacity=".5"/>
      <stop offset="1" stop-color="#fff" stop-opacity=".4"/>
    </linearGradient>
    <linearGradient id="linear-gradient2" x1="192.9" y1="105.2" x2="192.9" y2="324.8" gradientTransform="translate(0 401) scale(1 -1)" gradientUnits="userSpaceOnUse">
      <stop offset="0" stop-color="#48790b"/>
      <stop offset=".8" stop-color="#fff" stop-opacity=".4"/>
    </linearGradient>
    <linearGradient id="linear-gradient3" x1="176.4" y1="73.8" x2="176.4" y2="148.9" gradientTransform="translate(0 401) scale(1 -1)" gradientUnits="userSpaceOnUse">
      <stop offset="0" stop-color="#5e7814"/>
      <stop offset=".5" stop-color="#8aa21f"/>
      <stop offset="1" stop-color="#b1c628"/>
    </linearGradient>
    <linearGradient id="linear-gradient4" x1="173.9" y1="86.4" x2="175" y2="146.8" gradientTransform="translate(0 401) scale(1 -1)" gradientUnits="userSpaceOnUse">
      <stop offset="0" stop-color="#82af10"/>
      <stop offset=".8" stop-color="#fff" stop-opacity="0"/>
    </linearGradient>
    <linearGradient id="linear-gradient5" x1="223.3" y1="71.4" x2="223.3" y2="139" gradientTransform="translate(0 401) scale(1 -1)" gradientUnits="userSpaceOnUse">
      <stop offset="0" stop-color="#5e7814"/>
      <stop offset=".1" stop-color="#758e1a"/>
      <stop offset=".3" stop-color="#8fa620"/>
      <stop offset=".6" stop-color="#a2b824"/>
      <stop offset=".8" stop-color="#adc327"/>
      <stop offset="1" stop-color="#b1c628"/>
    </linearGradient>
    <linearGradient id="linear-gradient6" x1="206.8" y1="66.3" x2="206.8" y2="142.9" gradientTransform="translate(0 401) scale(1 -1)" gradientUnits="userSpaceOnUse">
      <stop offset="0" stop-color="#fff"/>
      <stop offset="1" stop-color="#fff" stop-opacity="0"/>
    </linearGradient>
    <radialGradient id="radial-gradient1" cx="2203.3" cy="-1629" fx="2203.3" fy="-1629" r="46.8" gradientTransform="translate(-182.6 -14.5) scale(.2 -.2)" gradientUnits="userSpaceOnUse">
      <stop offset="0" stop-color="#323232"/>
      <stop offset=".3" stop-color="#252525" stop-opacity=".7"/>
      <stop offset=".8" stop-color="#040404" stop-opacity="0"/>
      <stop offset=".9" stop-color="#000" stop-opacity="0"/>
    </radialGradient>
    <radialGradient id="radial-gradient2" cx="2128.9" cy="-1629" fx="2128.9" fy="-1629" r="46.7" gradientTransform="translate(-182.6 -14.5) scale(.2 -.2)" gradientUnits="userSpaceOnUse">
      <stop offset="0" stop-color="#323232"/>
      <stop offset=".3" stop-color="#252525" stop-opacity=".7"/>
      <stop offset=".8" stop-color="#040404" stop-opacity="0"/>
      <stop offset=".9" stop-color="#000" stop-opacity="0"/>
    </radialGradient>
  </defs>
  <ellipse class="st2" cx="199.2" cy="329" rx="46" ry="9.5"/>
  <path class="st3" d="M183,307.7h30.7c-1.9-39.9-13.5-167.1-33.1-246.2,3.5,54.3,7.4,234.7,2.4,246.2Z"/>
  <path class="st10" d="M183,308.1h12.5c1.5-90-14.9-246.2-14.9-246.2,3.5,54.3,7.4,234.7,2.4,246.2Z"/>
  <path class="st8" d="M184.1,300.9l13,3.8s-.9-32,7.9-46.5c2.5-16.6-18.2-168.1-23.7-193.9-.2-.9-.5-1.9-.7-2.8,3.2,49.5,6.7,203.9,3.5,239.4h0Z"/>
  <g>
    <path class="st0" d="M182.1,331l19.4.8c.5-37.6-13.2-102.7-50.3-128,18.9,23.4,32.5,52.1,30.9,127.2h0Z"/>
    <path class="st9" d="M153.9,207.2c17.6,22.9,30,52.3,28.4,124l13.3.6c.5-14.5.8-90.8-41.7-124.6h0Z"/>
  </g>
  <g>
    <path class="st1" d="M219,332.3c.6,2.7-19.4,4.6-20.1,4s-14.5-92.9,50.5-83.6c-35.2,1.5-37.9,49.8-30.4,79.6Z"/>
    <path class="st7" d="M198.9,336.3c.4.3,7.1-.2,12.7-1.1-.8-7.8-4.8-50.3,4.7-75.4-26.2,20.8-17.9,76-17.4,76.5h0Z"/>
  </g>
  <g>
    <ellipse class="st6" cx="205.2" cy="288.4" rx="8.9" ry="8.2"/>
    <ellipse class="st5" cx="192.1" cy="288.4" rx="8.9" ry="8.2"/>
    <circle class="st4" cx="192.1" cy="288.4" r="5.1"/>
    <circle class="st4" cx="205" cy="288.4" r="5.1"/>
  </g>
  <path class="st11" d="M155.7,319l7.3,12.5h4M175.9,336.9h8.8l-13-34.9M226.7,334.7h5.7l4.2-27M241.3,327.6h4.9l2.4-9.9"/>
</svg>