<?xml version="1.0" encoding="UTF-8"?>
<svg id="Layer_1" xmlns="http://www.w3.org/2000/svg" version="1.1" viewBox="0 0 400 400">
  <!-- Generator: Adobe Illustrator 29.0.0, SVG Export Plug-In . SVG Version: 2.1.0 Build 186)  -->
  <defs>
    <style>
      .st0 {
        fill: #464342;
      }
    </style>
  </defs>
  <path class="st0" d="M81.2,200c0,47,27.3,87.7,67,106.9l-56.7-155.3c-6.6,14.8-10.3,31.1-10.3,48.4ZM280.2,194c0-14.7-5.3-24.9-9.8-32.8-6-9.8-11.7-18.1-11.7-27.9s8.3-21.1,20-21.1,1,0,1.5,0c-21.1-19.4-49.3-31.2-80.2-31.2s-78,21.3-99.3,53.6c2.8,0,5.4.1,7.6.1,12.4,0,31.7-1.5,31.7-1.5,6.4-.4,7.2,9,.8,9.8,0,0-6.4.8-13.6,1.1l43.3,128.7,26-78-18.5-50.7c-6.4-.4-12.5-1.1-12.5-1.1-6.4-.4-5.7-10.2.8-9.8,0,0,19.6,1.5,31.3,1.5s31.7-1.5,31.7-1.5c6.4-.4,7.2,9,.8,9.8,0,0-6.5.8-13.6,1.1l42.9,127.7,11.9-39.6c5.1-16.4,9-28.2,9-38.4ZM202.1,210.4l-35.6,103.6c10.6,3.1,21.9,4.8,33.6,4.8s27.1-2.4,39.5-6.7c-.3-.5-.6-1-.8-1.6l-36.5-100.1ZM304.3,143c.5,3.8.8,7.8.8,12.2,0,12.1-2.3,25.6-9,42.6l-36.3,104.9c35.3-20.6,59.1-58.9,59.1-102.7,0-20.7-5.3-40.1-14.6-57ZM200,61.5c-76.4,0-138.5,62.1-138.5,138.5s62.1,138.5,138.5,138.5,138.5-62.1,138.5-138.5c0-76.4-62.1-138.5-138.5-138.5ZM200,332.2c-72.9,0-132.2-59.3-132.2-132.2S127.1,67.9,200,67.9s132.1,59.3,132.1,132.1-59.3,132.2-132.1,132.2Z"/>
</svg>