<?xml version="1.0" encoding="UTF-8"?>
<svg id="Layer_1" xmlns="http://www.w3.org/2000/svg" version="1.1" viewBox="0 0 400 400">
  <!-- Generator: Adobe Illustrator 29.0.0, SVG Export Plug-In . SVG Version: 2.1.0 Build 186)  -->
  <defs>
    <style>
      .st0 {
        fill: #464342;
      }
    </style>
  </defs>
  <path class="st0" d="M28.4,200c0,67.9,39.5,126.6,96.7,154.4L43.3,130.2c-9.5,21.3-14.9,45-14.9,69.8ZM315.8,191.3c0-21.2-7.6-35.9-14.1-47.3-8.7-14.1-16.8-26.1-16.8-40.2s12-30.5,28.8-30.5,1.5,0,2.2.1c-30.5-28-71.2-45-115.9-45S87.3,59.2,56.6,105.8c4,.1,7.8.2,11,.2,17.9,0,45.7-2.2,45.7-2.2,9.2-.5,10.3,13,1.1,14.1,0,0-9.3,1.1-19.6,1.6l62.5,185.8,37.5-112.6-26.7-73.2c-9.2-.5-18-1.6-18-1.6-9.2-.5-8.2-14.7,1.1-14.1,0,0,28.3,2.2,45.2,2.2s45.7-2.2,45.7-2.2c9.3-.5,10.3,13,1.1,14.1,0,0-9.3,1.1-19.6,1.6l62,184.4,17.1-57.2c7.4-23.7,13.1-40.8,13.1-55.5ZM203,215l-51.5,149.6c15.4,4.5,31.6,7,48.5,7s39.1-3.5,57-9.7c-.5-.7-.9-1.5-1.2-2.4l-52.7-144.5ZM350.5,117.7c.7,5.5,1.2,11.3,1.2,17.6,0,17.4-3.3,37-13,61.5l-52.4,151.5c51-29.7,85.3-85,85.3-148.3,0-29.8-7.6-57.9-21-82.3ZM200,0C89.7,0,0,89.7,0,200s89.7,200,200,200,200-89.7,200-200C400,89.7,310.3,0,200,0ZM200,390.8c-105.2,0-190.8-85.6-190.8-190.8S94.8,9.2,200,9.2s190.8,85.6,190.8,190.8-85.6,190.8-190.8,190.8Z"/>
</svg>