<?xml version="1.0" encoding="UTF-8"?><svg id="uuid-409dfa49-08b5-4103-b734-d2f76c840b4c" xmlns="http://www.w3.org/2000/svg" viewBox="0 0 69 58"><path class="uuid-6fbace37-3d53-4e19-8ff7-82308b71ce5f" d="M20.392,52.9404L6.0991,28.8766,20.392,4.8128h28.5857l14.2928,24.0638-14.2928,24.0638h-28.5857ZM50.2098,2.4681l15.7714,26.5319-15.7714,26.5319h-31.4196L3.0187,29,18.7902,2.4681h31.4196ZM51.5652,0H17.3116L.1848,29l17.1268,29h34.2536l17.1268-29L51.5652,0Z"/><path class="uuid-1fc49a96-c237-4bde-9ea7-6cf63b3f2ab5" d="M38.8741,45.2893l-3.5732-5.9234-3.5732,5.9234-9.9804-16.6595,1.1089-.617,8.8715,14.9319,2.8339-4.6894-5.6679-9.6255,1.109-.617,5.2982,9.0085,5.4214-9.0085,1.1089.617-5.791,9.6255,2.8339,4.6894,8.9946-14.9319,1.109.617-10.1036,16.6595ZM40.1062,22.0893h-10.5964l-3.5732,6.0469-1.1089-.6171,9.9803-16.6595,10.1036,16.7829-1.1089.6171-3.6965-6.1703ZM39.367,20.8553l-4.559-7.6511-4.5589,7.6511h9.1179Z"/></svg>