<?xml version="1.0" encoding="UTF-8"?><svg id="uuid-9aa443af-477f-4910-bf4e-9a3cf59d23d4" xmlns="http://www.w3.org/2000/svg" viewBox="0 0 69 58"><defs><style>.uuid-baffb5b1-1052-4345-9db3-7a691b75cace{fill:#fff;}.uuid-b3f2019e-9c5e-4a02-bbe3-15845ebcb4e8{fill:#151e29;}</style></defs><rect class="uuid-baffb5b1-1052-4345-9db3-7a691b75cace" x="20.8625" y="10.0744" width="29" height="36"/><path class="uuid-b3f2019e-9c5e-4a02-bbe3-15845ebcb4e8" d="M20.392,52.9404L6.0991,28.8766,20.392,4.8128h28.5857l14.2928,24.0638-14.2928,24.0638h-28.5857ZM50.2098,2.4681l15.7714,26.5319-15.7714,26.5319h-31.4196L3.0187,29,18.7902,2.4681h31.4196ZM51.5652,0H17.3116L.1848,29l17.1268,29h34.2536l17.1268-29L51.5652,0Z"/><path class="uuid-baffb5b1-1052-4345-9db3-7a691b75cace" d="M38.8741,45.2893l-3.5732-5.9234-3.5732,5.9234-9.9804-16.6595,1.1089-.617,8.8715,14.9319,2.8339-4.6894-5.6679-9.6255,1.109-.617,5.2982,9.0085,5.4214-9.0085,1.1089.617-5.791,9.6255,2.8339,4.6894,8.9946-14.9319,1.109.617-10.1036,16.6595ZM40.1062,22.0893h-10.5964l-3.5732,6.0469-1.1089-.6171,9.9803-16.6595,10.1036,16.7829-1.1089.6171-3.6965-6.1703ZM39.367,20.8553l-4.559-7.6511-4.5589,7.6511h9.1179Z"/></svg>